<?xml version="1.0" encoding="UTF-8" standalone="no"?>
<!-- Created with Inkscape (http://www.inkscape.org/) -->
<svg xmlns:dc="http://purl.org/dc/elements/1.1/" xmlns:cc="http://creativecommons.org/ns#" xmlns:rdf="http://www.w3.org/1999/02/22-rdf-syntax-ns#" xmlns:svg="http://www.w3.org/2000/svg" xmlns="http://www.w3.org/2000/svg" xmlns:sodipodi="http://sodipodi.sourceforge.net/DTD/sodipodi-0.dtd" xmlns:inkscape="http://www.inkscape.org/namespaces/inkscape" id="svg2" version="1.1" inkscape:version="0.48.5 r10040" width="405.16" height="408.92001" xml:space="preserve" sodipodi:docname="manc.svg"><metadata id="metadata8"><rdf:RDF><cc:Work rdf:about=""><dc:format>image/svg+xml</dc:format><dc:type rdf:resource="http://purl.org/dc/dcmitype/StillImage"/><dc:title/></cc:Work></rdf:RDF></metadata><defs id="defs6"><clipPath clipPathUnits="userSpaceOnUse" id="clipPath16"><path d="m 0,0 895.748,0 0,595.276 L 0,595.276 0,0 z" id="path18" inkscape:connector-curvature="0"/></clipPath><clipPath clipPathUnits="userSpaceOnUse" id="clipPath26"><path d="m 0,595.276 895.748,0 L 895.748,0 0,0 0,595.276 z" id="path28" inkscape:connector-curvature="0"/></clipPath><clipPath clipPathUnits="userSpaceOnUse" id="clipPath52"><path d="m 0,595.276 895.748,0 L 895.748,0 0,0 0,595.276 z" id="path54" inkscape:connector-curvature="0"/></clipPath><clipPath clipPathUnits="userSpaceOnUse" id="clipPath524"><path d="m 55.022,490.512 59.561,0 0,71.074 -59.561,0 0,-71.074 z" id="path526" inkscape:connector-curvature="0"/></clipPath><clipPath clipPathUnits="userSpaceOnUse" id="clipPath946"><path d="m 303.874,449.292 44.453,0 0,62.986 -44.453,0 0,-62.986 z" id="path948" inkscape:connector-curvature="0"/></clipPath><clipPath clipPathUnits="userSpaceOnUse" id="clipPath1956"><path d="m 360.901,449.292 44.454,0 0,62.986 -44.454,0 0,-62.986 z" id="path1958" inkscape:connector-curvature="0"/></clipPath><clipPath clipPathUnits="userSpaceOnUse" id="clipPath3640"><path d="m 490.195,495.616 63.554,0 0,64.382 -63.554,0 0,-64.382 z" id="path3642" inkscape:connector-curvature="0"/></clipPath><clipPath clipPathUnits="userSpaceOnUse" id="clipPath3664"><path d="m 523.456,499.35 c -0.141,-0.385 -0.637,-1.297 -1.291,-1.297 l 0,0 c -0.294,0 -0.466,0.178 -0.473,0.39 l 0,0 c -0.009,0.27 0.263,0.422 0.444,0.422 l 0,0 c 0.36,0 0.561,-0.021 0.859,0.412 l 0,0 c -0.259,-0.011 -0.81,-0.015 -1.675,-0.015 l 0,0 c -0.867,0 -2.377,0.093 -2.377,0.093 l 0,0 c 0,0 0.73,-2.037 2.526,-2.037 l 0,0 c 1.794,0 2.484,2.06 2.484,2.06 l 0,0 c -0.112,-0.012 -0.497,-0.028 -0.497,-0.028" id="path3666" inkscape:connector-curvature="0"/></clipPath><clipPath clipPathUnits="userSpaceOnUse" id="clipPath4080"><path d="m 490.195,495.616 63.554,0 0,64.382 -63.554,0 0,-64.382 z" id="path4082" inkscape:connector-curvature="0"/></clipPath><clipPath clipPathUnits="userSpaceOnUse" id="clipPath4092"><path d="m 526.028,499.372 c 0,0 0.062,-0.203 0.489,-0.181 l 0,0 c 0.166,0.009 0.186,0.049 0.247,0.061 l 0,0 c 0.121,0.022 0.308,-0.106 0.286,-0.32 l 0,0 c -0.016,-0.148 -0.144,-0.337 -0.58,-0.337 l 0,0 c -0.434,0 -0.945,0.357 -1.199,0.687 l 0,0 c 0,0 -0.263,-0.06 -0.533,-0.075 l 0,0 c 0,0 0.837,-1.174 2.488,-1.174 l 0,0 c 1.816,0 2.488,1.625 2.773,2.15 l 0,0 c -1.171,-0.315 -2.004,-0.571 -3.971,-0.811" id="path4094" inkscape:connector-curvature="0"/></clipPath><clipPath clipPathUnits="userSpaceOnUse" id="clipPath4508"><path d="m 490.195,495.616 63.554,0 0,64.382 -63.554,0 0,-64.382 z" id="path4510" inkscape:connector-curvature="0"/></clipPath><clipPath clipPathUnits="userSpaceOnUse" id="clipPath4520"><path d="m 515.733,498.033 c 1.651,0 2.489,1.174 2.489,1.174 l 0,0 c -0.271,0.015 -0.533,0.075 -0.533,0.075 l 0,0 c -0.256,-0.33 -0.765,-0.687 -1.201,-0.687 l 0,0 c -0.435,0 -0.563,0.189 -0.579,0.337 l 0,0 c -0.023,0.214 0.164,0.342 0.286,0.32 l 0,0 c 0.06,-0.012 0.081,-0.052 0.247,-0.061 l 0,0 c 0.427,-0.022 0.488,0.181 0.488,0.181 l 0,0 c -1.966,0.24 -2.799,0.496 -3.971,0.811 l 0,0 c 0.286,-0.525 0.957,-2.15 2.774,-2.15" id="path4522" inkscape:connector-curvature="0"/></clipPath><clipPath clipPathUnits="userSpaceOnUse" id="clipPath4936"><path d="m 490.195,495.616 63.554,0 0,64.382 -63.554,0 0,-64.382 z" id="path4938" inkscape:connector-curvature="0"/></clipPath><clipPath clipPathUnits="userSpaceOnUse" id="clipPath4956"><path d="m 540.032,518.758 -0.072,-0.084 c -5.242,-5.969 -12.412,-9.678 -18.714,-9.678 l 0,0 c -6.302,0 -13.473,3.709 -18.715,9.678 l 0,0 -0.073,0.084 c -0.498,0.573 -1.181,1.357 -2.811,1.357 l 0,0 c -0.951,0 -2.028,-0.509 -2.744,-1.296 l 0,0 c -0.535,-0.587 -1.142,-1.62 -0.993,-3.199 l 0,0 c 0.203,-2.157 3.629,-7.752 9.728,-11.219 l 0,0 c 4.917,-2.793 10.167,-4.211 15.608,-4.211 l 0,0 c 5.439,0 10.689,1.418 15.606,4.211 l 0,0 c 6.1,3.467 9.525,9.062 9.729,11.219 l 0,0 c 0.149,1.579 -0.457,2.612 -0.994,3.199 l 0,0 c -0.714,0.787 -1.792,1.296 -2.742,1.296 l 0,0 c -1.632,0 -2.314,-0.784 -2.813,-1.357" id="path4958" inkscape:connector-curvature="0"/></clipPath><clipPath clipPathUnits="userSpaceOnUse" id="clipPath9798"><path d="m 490.195,495.616 63.554,0 0,64.382 -63.554,0 0,-64.382 z" id="path9800" inkscape:connector-curvature="0"/></clipPath><clipPath clipPathUnits="userSpaceOnUse" id="clipPath9882"><path d="m 511.128,542.747 c -0.518,-0.364 -1.548,-1.228 -1.723,-1.42 l 0,0 0,-24.867 11.891,-7.644 11.892,7.644 0.015,24.829 c -0.377,0.336 -1.169,1.076 -1.793,1.458 l 0,0 -20.282,0 z" id="path9884" inkscape:connector-curvature="0"/></clipPath><clipPath clipPathUnits="userSpaceOnUse" id="clipPath11098"><path d="m 490.195,495.616 63.554,0 0,64.382 -63.554,0 0,-64.382 z" id="path11100" inkscape:connector-curvature="0"/></clipPath><clipPath clipPathUnits="userSpaceOnUse" id="clipPath11110"><path d="m 518.728,531.682 -1.215,0 c 0,0 0.586,-0.885 0.885,-1.351 l 0,0 c 0.3,-0.465 0.916,-1.686 1.021,-2.268 l 0,0 c 0.03,-0.164 0.03,-0.434 -0.21,-0.63 l 0,0 c -0.24,-0.194 -0.916,-0.722 -0.916,-1.471 l 0,0 c 0,-0.751 0.33,-1.051 0.42,-1.202 l 0,0 c 0.091,-0.15 0.481,-0.645 0.481,-0.87 l 0,0 c 0,-0.226 -0.12,-0.496 -0.12,-0.496 l 0,0 c 0,0 -0.465,-0.991 -0.616,-1.231 l 0,0 c -0.15,-0.24 -0.63,-0.54 -0.78,0.24 l 0,0 c -0.151,0.781 -0.256,2.913 -0.226,3.139 l 0,0 c 0.03,0.224 0.075,0.51 0.196,0.72 l 0,0 c 0.119,0.21 0.615,1.066 0.826,1.607 l 0,0 c 0,0 -1.399,0.148 -1.937,3.378 l 0,0 c -0.015,0.09 -0.15,0.195 -0.257,-0.03 l 0,0 c -0.104,-0.226 -0.18,-0.256 -0.239,-0.346 l 0,0 c -0.06,-0.09 -0.21,-0.105 -0.391,-0.029 l 0,0 c -0.18,0.074 -0.36,0.195 -0.555,0.24 l 0,0 c -0.195,0.045 -0.435,0.105 -0.586,-0.181 l 0,0 c -0.15,-0.284 -0.434,-0.931 -0.585,-1.23 l 0,0 c -0.15,-0.301 -0.451,-0.451 -0.766,-0.36 l 0,0 c -0.316,0.089 -0.646,0.225 -0.795,0.284 l 0,0 c -0.151,0.06 -0.241,0 -0.151,-0.15 l 0,0 c 0.09,-0.151 0.361,-0.721 0.435,-1.021 l 0,0 c 0.076,-0.3 0.195,-1.156 0.181,-1.336 l 0,0 c -0.015,-0.179 0.105,-0.179 0.255,-0.016 l 0,0 c 0.15,0.167 0.736,0.752 1.291,1.022 l 0,0 c 0.556,0.27 1.382,0.345 1.592,-0.015 l 0,0 c 0.21,-0.36 -0.355,-0.937 -0.824,-1.17 l 0,0 c -0.18,-0.091 -0.167,-0.361 0.013,-0.407 l 0,0 c 0.181,-0.045 0.601,-0.12 0.705,-0.51 l 0,0 c 0.106,-0.39 0.143,-4.151 0.188,-5.729 l 0,0 c 0.045,-1.575 0.586,-1.957 1.239,-1.979 l 0,0 c 0.653,-0.022 1.104,0 1.104,0 l 0,0 c 0,0 0.045,-0.833 -0.135,-2.139 l 0,0 c -0.18,-1.306 -0.18,-1.824 0.247,-2.387 l 0,0 c 0.429,-0.564 0.744,-1.037 0.766,-1.374 l 0,0 c 0.023,-0.338 0.023,-0.563 -0.045,-0.946 l 0,0 c -0.067,-0.383 -0.067,-1.081 0.946,-0.879 l 0,0 c 1.013,0.203 2.703,0.879 1.914,1.892 l 0,0 c -0.788,1.013 -1.17,1.824 -1.058,2.094 l 0,0 c 0.113,0.271 0.675,0.429 0.969,0.721 l 0,0 c 0.292,0.294 0.314,0.609 -0.024,1.036 l 0,0 c -0.336,0.428 -1.373,1.824 -1.126,2.635 l 0,0 c 0,0 3.762,-4.008 4.032,-4.278 l 0,0 c 0.27,-0.271 0.533,-0.203 0.563,0.225 l 0,0 c 0.023,0.315 -0.068,0.585 -0.113,0.833 l 0,0 c -0.045,0.248 -0.067,0.698 -0.067,1.148 l 0,0 c 0,0.451 0.157,1.172 0.203,1.51 l 0,0 c 0.044,0.337 -0.046,0.946 -0.586,0.991 l 0,0 c -0.27,0.022 -0.631,-0.045 -0.631,0.269 l 0,0 c 0,0.316 0.114,0.764 0.181,1.034 l 0,0 c 0.067,0.271 0.023,0.315 -0.158,0.428 l 0,0 c -0.18,0.112 -0.496,0.068 -0.653,-0.113 l 0,0 c -0.158,-0.179 -0.564,-0.36 -0.833,-0.179 l 0,0 c 0,0 0.382,1.058 0.99,1.667 l 0,0 c 0,0 1.667,-0.519 2.275,-1.195 l 0,0 0,-6.732 c 0,-0.399 1.081,-0.444 1.081,0.024 l 0,0 0,6.865 c 0,0 0.473,0.589 0.518,0.969 l 0,0 c 0.046,0.372 0.068,0.54 -0.045,0.947 l 0,0 c 0,0 0.338,0.225 0.338,0.742 l 0,0 c 0,0.518 -0.383,1.381 -0.788,1.764 l 0,0 0,1.324 1.788,0 -0.009,2.88 0.316,0.496 -0.79,1.397 -0.787,-1.397 0.315,-0.496 0,-1.509 -0.912,0 0,1.509 0.315,0.496 -0.788,1.397 -0.789,-1.397 0.316,-0.496 0,-1.509 -0.912,0 0,1.509 0.314,0.496 -0.787,1.404 -0.788,-1.397 0.315,-0.503 0,-2.882 1.779,0 0,-0.901 c 0,0 -0.631,0.046 -1.103,-0.159 l 0,0 c -0.474,-0.201 -1.036,-0.494 -1.307,-0.585 l 0,0 c -0.27,-0.089 -0.401,-0.066 -0.447,0.069 l 0,0 c -0.045,0.137 -0.003,0.225 0.155,0.36 l 0,0 c 0.074,0.064 0.773,0.376 0.855,0.608 l 0,0 c 0.049,0.136 -0.022,0.168 -0.09,0.225 l 0,0 c -0.159,0.132 -1.193,0.924 -1.193,0.924 l 0,0 c 0,0 0.157,0.518 0.157,0.832 l 0,0 0,0.743 c 0,0.676 0.293,1.698 1.014,2.374 l 0,0 -1.193,0 -0.721,1.606 -0.924,-1.606 -0.886,0.007 -0.855,1.629 -0.782,-1.622 z m 2.912,-1.999 c -0.193,0.102 -0.152,0.377 -0.017,0.592 l 0,0 c 0.135,0.214 0.431,0.453 0.514,0.416 l 0,0 c 0.09,-0.039 0.027,-0.444 -0.007,-0.641 l 0,0 c -0.045,-0.262 -0.201,-0.4 -0.359,-0.4 l 0,0 c -0.044,0 -0.089,0.011 -0.131,0.033 m -1.779,0.367 c -0.029,0.191 -0.081,0.602 0.009,0.641 l 0,0 c 0.082,0.037 0.362,-0.202 0.497,-0.416 l 0,0 c 0.135,-0.215 0.175,-0.49 -0.017,-0.592 l 0,0 c -0.042,-0.022 -0.087,-0.033 -0.132,-0.033 l 0,0 c -0.16,0 -0.319,0.137 -0.357,0.4 m 0.615,-1.971 1.144,0 c 0,0 -0.166,-0.682 -0.566,-1.338 l 0,0 c -0.394,0.64 -0.578,1.338 -0.578,1.338 m 3.748,-3.626 c 0,0.157 0.361,0.337 0.968,0.337 l 0,0 c 0.609,0 0.856,-0.383 0.856,-0.383 l 0,0 0,-0.923 c -1.284,0 -1.824,0.721 -1.824,0.969" id="path11112" inkscape:connector-curvature="0"/></clipPath><clipPath clipPathUnits="userSpaceOnUse" id="clipPath11526"><path d="m 490.195,495.616 63.554,0 0,64.382 -63.554,0 0,-64.382 z" id="path11528" inkscape:connector-curvature="0"/></clipPath><clipPath clipPathUnits="userSpaceOnUse" id="clipPath11536"><path d="m 510.336,533.629 21.939,0 0,1.496 -21.939,0 0,-1.496 z" id="path11538" inkscape:connector-curvature="0"/></clipPath><clipPath clipPathUnits="userSpaceOnUse" id="clipPath11952"><path d="m 490.195,495.616 63.554,0 0,64.382 -63.554,0 0,-64.382 z" id="path11954" inkscape:connector-curvature="0"/></clipPath><clipPath clipPathUnits="userSpaceOnUse" id="clipPath11962"><path d="m 510.336,535.894 21.939,0 0,5.96 -21.939,0 0,-5.96 z" id="path11964" inkscape:connector-curvature="0"/></clipPath><clipPath clipPathUnits="userSpaceOnUse" id="clipPath12378"><path d="m 490.195,495.616 63.554,0 0,64.382 -63.554,0 0,-64.382 z" id="path12380" inkscape:connector-curvature="0"/></clipPath><clipPath clipPathUnits="userSpaceOnUse" id="clipPath12398"><path d="m 513.345,558.055 c -0.118,-0.412 0.206,-0.589 0.324,-0.559 l 0,0 c 0.118,0.03 0.206,0.059 0.176,0.176 l 0,0 c -0.03,0.118 0.059,0.413 0.471,0.413 l 0,0 c 0.412,0 0.573,-0.383 0.573,-0.647 l 0,0 c 0,-0.266 -0.426,-0.707 -1.191,-0.707 l 0,0 c -0.765,0 -1.15,0.501 -1.12,0.972 l 0,0 c -0.368,-0.536 -0.58,-1.075 -0.737,-1.987 l 0,0 c 2.117,0.71 3.72,1.264 6.324,1.496 l 0,0 c -1.199,0.835 -2.266,1.542 -3.496,1.542 l 0,0 c -0.648,0 -1.195,-0.246 -1.324,-0.699" id="path12400" inkscape:connector-curvature="0"/></clipPath><clipPath clipPathUnits="userSpaceOnUse" id="clipPath12814"><path d="m 490.195,495.616 63.554,0 0,64.382 -63.554,0 0,-64.382 z" id="path12816" inkscape:connector-curvature="0"/></clipPath><clipPath clipPathUnits="userSpaceOnUse" id="clipPath12826"><path d="m 524.381,557.194 c 2.605,-0.232 4.279,-0.786 6.397,-1.495 l 0,0 c -0.158,0.91 -0.389,1.452 -0.758,1.989 l 0,0 c 0.03,-0.471 -0.354,-0.972 -1.12,-0.972 l 0,0 c -0.765,0 -1.19,0.441 -1.19,0.706 l 0,0 c 0,0.265 0.161,0.647 0.573,0.647 l 0,0 c 0.412,0 0.5,-0.294 0.471,-0.412 l 0,0 c -0.03,-0.117 0.059,-0.147 0.177,-0.176 l 0,0 c 0.117,-0.03 0.441,0.147 0.323,0.559 l 0,0 c -0.13,0.452 -0.677,0.699 -1.324,0.699 l 0,0 c -1.23,0 -2.35,-0.71 -3.549,-1.545" id="path12828" inkscape:connector-curvature="0"/></clipPath><clipPath clipPathUnits="userSpaceOnUse" id="clipPath13242"><path d="m 520.743,559.057 c 0,0 -0.065,-0.213 0.201,-0.172 l 0,0 c 0.339,0.051 0.467,-0.298 0.442,-0.471 l 0,0 c -0.06,-0.404 -0.53,-0.795 -1.001,-0.795 l 0,0 c -0.47,0 -0.615,0.076 -0.615,0.076 l 0,0 c -0.07,-0.111 -0.132,-0.195 -0.206,-0.319 l 0,0 c 0.43,0.022 1.423,0.044 1.82,0.044 l 0,0 c 0.397,0 1.494,-0.053 1.735,-0.07 l 0,0 c -0.388,0.898 -1.121,2.14 -1.632,2.14 l 0,0 c -0.018,0 -0.039,10e-4 -0.065,10e-4 l 0,0 c -0.121,0 -0.334,-0.035 -0.679,-0.434" id="path13244" inkscape:connector-curvature="0"/></clipPath><clipPath clipPathUnits="userSpaceOnUse" id="clipPath13678"><path d="m 490.195,495.616 63.554,0 0,64.382 -63.554,0 0,-64.382 z" id="path13680" inkscape:connector-curvature="0"/></clipPath><clipPath clipPathUnits="userSpaceOnUse" id="clipPath13702"><path d="m 499.603,545.053 c -3.096,-4.392 -5.041,-5.734 -6.085,-6.455 l 0,0 -0.042,-0.028 0.003,-0.05 c 0.045,-1.319 0.437,-5.689 3.586,-6.487 l 0,0 c 2.188,-0.554 4.465,0.795 6.961,4.124 l 0,0 c 0.091,0.121 0.221,0.305 0.37,0.518 l 0,0 c 1.846,2.631 7.463,10.637 16.9,10.637 l 0,0 c 9.438,0 15.054,-8.006 16.9,-10.637 l 0,0 c 0.15,-0.213 0.28,-0.397 0.37,-0.518 l 0,0 c 2.497,-3.329 4.774,-4.678 6.962,-4.124 l 0,0 c 3.161,0.801 3.55,5.154 3.594,6.468 l 0,0 0.001,0.049 -0.04,0.028 c -1.113,0.767 -2.974,2.052 -6.094,6.475 l 0,0 c -1.863,2.644 -8.935,11.267 -21.693,11.267 l 0,0 c -12.756,0 -19.829,-8.623 -21.693,-11.267" id="path13704" inkscape:connector-curvature="0"/></clipPath><clipPath clipPathUnits="userSpaceOnUse" id="clipPath18546"><path d="m 490.195,495.616 63.554,0 0,64.382 -63.554,0 0,-64.382 z" id="path18548" inkscape:connector-curvature="0"/></clipPath><clipPath clipPathUnits="userSpaceOnUse" id="clipPath18598"><path d="m 544.664,547.542 c -0.511,-0.709 -0.408,-2.055 -0.336,-2.37 l 0,0 c 0,0 0.884,-1.694 3.618,-4.331 l 0,0 0.007,1.247 c -1.997,1.832 -2.939,3.679 -2.939,3.679 l 0,0 c 0,0 0.735,0.278 1.058,0.699 l 0,0 c 0.166,0.231 0.233,0.547 0.2,0.761 l 0,0 c -0.062,0.398 -0.373,0.599 -0.476,0.645 l 0,0 c -0.107,0.048 -0.256,0.12 -0.433,0.12 l 0,0 c -0.205,0 -0.446,-0.098 -0.699,-0.45" id="path18600" inkscape:connector-curvature="0"/></clipPath><clipPath clipPathUnits="userSpaceOnUse" id="clipPath19014"><path d="m 490.195,495.616 63.554,0 0,64.382 -63.554,0 0,-64.382 z" id="path19016" inkscape:connector-curvature="0"/></clipPath><clipPath clipPathUnits="userSpaceOnUse" id="clipPath19026"><path d="m 546.503,546.277 c -0.143,-0.199 -0.321,-0.487 -0.803,-0.724 l 0,0 c 0.27,-0.465 0.956,-1.606 2.675,-3.215 l 0,0 c 0.285,-0.268 0.995,-0.489 1.395,-0.039 l 0,0 c 0.155,0.172 0.254,0.42 0.239,0.708 l 0,0 c -0.019,0.33 -0.222,0.716 -0.419,0.884 l 0,0 c -0.342,0.294 -1.819,1.785 -2.877,2.957 l 0,0 c -0.023,-0.213 -0.21,-0.571 -0.21,-0.571" id="path19028" inkscape:connector-curvature="0"/></clipPath><clipPath clipPathUnits="userSpaceOnUse" id="clipPath19442"><path d="m 490.195,495.616 63.554,0 0,64.382 -63.554,0 0,-64.382 z" id="path19444" inkscape:connector-curvature="0"/></clipPath><clipPath clipPathUnits="userSpaceOnUse" id="clipPath19454"><path d="m 496.931,547.872 c -0.102,-0.046 -0.414,-0.247 -0.475,-0.645 l 0,0 c -0.034,-0.214 0.034,-0.53 0.199,-0.761 l 0,0 c 0.323,-0.421 1.059,-0.699 1.059,-0.699 l 0,0 c 0,0 -0.944,-1.84 -2.941,-3.674 l 0,0 0.007,-1.176 c 2.657,2.643 3.589,4.264 3.589,4.264 l 0,0 c 0.072,0.315 0.206,1.652 -0.305,2.361 l 0,0 c -0.254,0.352 -0.495,0.45 -0.7,0.45 l 0,0 c -0.176,0 -0.326,-0.072 -0.433,-0.12" id="path19456" inkscape:connector-curvature="0"/></clipPath><clipPath clipPathUnits="userSpaceOnUse" id="clipPath19870"><path d="m 490.195,495.616 63.554,0 0,64.382 -63.554,0 0,-64.382 z" id="path19872" inkscape:connector-curvature="0"/></clipPath><clipPath clipPathUnits="userSpaceOnUse" id="clipPath19882"><path d="m 493.103,543.891 c -0.196,-0.168 -0.4,-0.554 -0.418,-0.884 l 0,0 c -0.015,-0.288 0.084,-0.536 0.238,-0.708 l 0,0 c 0.4,-0.45 1.11,-0.229 1.396,0.039 l 0,0 c 1.718,1.609 2.405,2.75 2.674,3.215 l 0,0 c -0.482,0.237 -0.66,0.525 -0.802,0.724 l 0,0 c 0,0 -0.187,0.358 -0.21,0.571 l 0,0 c -1.058,-1.172 -2.535,-2.663 -2.878,-2.957" id="path19884" inkscape:connector-curvature="0"/></clipPath><clipPath clipPathUnits="userSpaceOnUse" id="clipPath20298"><path d="m 490.195,495.616 63.554,0 0,64.382 -63.554,0 0,-64.382 z" id="path20300" inkscape:connector-curvature="0"/></clipPath><clipPath clipPathUnits="userSpaceOnUse" id="clipPath20310"><path d="m 491.539,525.747 c 0,-2.444 1.981,-4.425 4.424,-4.425 l 0,0 c 2.443,0 4.424,1.981 4.424,4.425 l 0,0 c 0,2.443 -1.981,4.424 -4.424,4.424 l 0,0 c -2.443,0 -4.424,-1.981 -4.424,-4.424" id="path20312" inkscape:connector-curvature="0"/></clipPath><clipPath clipPathUnits="userSpaceOnUse" id="clipPath20726"><path d="m 490.195,495.616 63.554,0 0,64.382 -63.554,0 0,-64.382 z" id="path20728" inkscape:connector-curvature="0"/></clipPath><clipPath clipPathUnits="userSpaceOnUse" id="clipPath20742"><path d="m 542.516,525.686 c 0,-2.443 1.981,-4.425 4.424,-4.425 l 0,0 c 2.444,0 4.424,1.982 4.424,4.425 l 0,0 c 0,2.444 -1.98,4.425 -4.424,4.425 l 0,0 c -2.443,0 -4.424,-1.981 -4.424,-4.425" id="path20744" inkscape:connector-curvature="0"/></clipPath><clipPath clipPathUnits="userSpaceOnUse" id="clipPath21158"><path d="m 490.195,495.616 63.554,0 0,64.382 -63.554,0 0,-64.382 z" id="path21160" inkscape:connector-curvature="0"/></clipPath><clipPath clipPathUnits="userSpaceOnUse" id="clipPath21182"><path d="m 740.409,449.292 44.454,0 0,62.986 -44.454,0 0,-62.986 z" id="path21184" inkscape:connector-curvature="0"/></clipPath><clipPath clipPathUnits="userSpaceOnUse" id="clipPath21764"><path d="m 797.436,449.292 44.454,0 0,62.986 -44.454,0 0,-62.986 z" id="path21766" inkscape:connector-curvature="0"/></clipPath><clipPath clipPathUnits="userSpaceOnUse" id="clipPath22516"><path d="m 0,0 895.748,0 0,595.276 L 0,595.276 0,0 z" id="path22518" inkscape:connector-curvature="0"/></clipPath><clipPath clipPathUnits="userSpaceOnUse" id="clipPath22524"><path d="m 52.8583,584.937 353.4957,0 0,-64.677 -353.4957,0 0,64.677 z" id="path22526" inkscape:connector-curvature="0"/></clipPath><clipPath clipPathUnits="userSpaceOnUse" id="clipPath22540"><path d="m 489.394,584.937 353.496,0 0,-64.677 -353.496,0 0,64.677 z" id="path22542" inkscape:connector-curvature="0"/></clipPath><clipPath clipPathUnits="userSpaceOnUse" id="clipPath22558"><path d="m 0,595.276 895.748,0 L 895.748,0 0,0 0,595.276 z" id="path22560" inkscape:connector-curvature="0"/></clipPath><clipPath clipPathUnits="userSpaceOnUse" id="clipPath22566"><path d="m 867.402,-8.504 36.85,0 0,612.283 -36.85,0 0,-612.283 z" id="path22568" inkscape:connector-curvature="0"/></clipPath></defs><sodipodi:namedview pagecolor="#ffffff" bordercolor="#666666" borderopacity="1" objecttolerance="10" gridtolerance="10" guidetolerance="10" inkscape:pageopacity="0" inkscape:pageshadow="2" inkscape:window-width="1366" inkscape:window-height="705" id="namedview4" showgrid="false" inkscape:zoom="1.279265" inkscape:cx="202.58" inkscape:cy="204.45999" inkscape:window-x="-8" inkscape:window-y="-8" inkscape:window-maximized="1" inkscape:current-layer="g10" fit-margin-top="2" fit-margin-left="2" fit-margin-right="2" fit-margin-bottom="2"/><g id="g10" inkscape:groupmode="layer" inkscape:label="1859980_DOWNLOAD" transform="matrix(1.25,0,0,-1.25,-827.5995,832.4855)"><g id="g21960" transform="matrix(80,0,0,80,840.2156,353.7324)"><path d="m 0,0 c -0.018,-0.044 -0.07,-0.166 -0.192,-0.166 -0.149,0 -0.193,0.157 -0.193,0.166 L -0.393,0.009 C -0.393,0.009 -0.271,0 -0.201,0 -0.14,0 -0.018,0.009 0,0.009 L 0,0 z" style="fill:#2e2e30;fill-opacity:1;fill-rule:evenodd;stroke:none" id="path21962" inkscape:connector-curvature="0"/></g><g id="g21964" transform="matrix(80,0,0,80,869.6076,360.0284)"><path d="m 0,0 0.026,-0.009 c -0.035,-0.087 -0.096,-0.192 -0.218,-0.192 -0.114,0 -0.175,0.07 -0.202,0.122 l -0.017,0.009 c 0,0 0.201,0.009 0.411,0.07" style="fill:#2e2e30;fill-opacity:1;fill-rule:evenodd;stroke:none" id="path21966" inkscape:connector-curvature="0"/></g><g id="g21968" transform="matrix(80,0,0,80,780.0556,360.0284)"><path d="M 0,0 -0.035,-0.009 C 0,-0.096 0.061,-0.201 0.184,-0.201 c 0.122,0 0.183,0.079 0.21,0.122 L 0.411,-0.07 C 0.411,-0.07 0.21,-0.061 0,0" style="fill:#2e2e30;fill-opacity:1;fill-rule:evenodd;stroke:none" id="path21970" inkscape:connector-curvature="0"/></g><g id="g21972" transform="matrix(80,0,0,80,832.5276,353.0364)"><path d="m 0,0 c -0.018,-0.026 -0.035,-0.026 -0.052,-0.026 -0.018,0 -0.035,-0.009 -0.035,-0.026 0.008,-0.018 0.017,-0.027 0.035,-0.027 0.043,0 0.07,0.061 0.078,0.088 l 0.035,0 c 0,0 -0.043,-0.131 -0.157,-0.131 -0.114,0 -0.166,0.131 -0.166,0.131 0,0 0.096,-0.009 0.157,-0.009 L 0,0 z" style="fill:#fff200;fill-opacity:1;fill-rule:evenodd;stroke:none" id="path21974" inkscape:connector-curvature="0"/></g><g id="g21976" transform="matrix(80,0,0,80,832.5276,353.0364)"><path d="m 0,0 c -0.018,-0.026 -0.035,-0.026 -0.052,-0.026 -0.018,0 -0.035,-0.009 -0.035,-0.026 0.008,-0.018 0.017,-0.027 0.035,-0.027 0.043,0 0.07,0.061 0.078,0.088 l 0.035,0 c 0,0 -0.043,-0.131 -0.157,-0.131 -0.114,0 -0.166,0.131 -0.166,0.131 0,0 0.096,-0.009 0.157,-0.009 L 0,0 z" style="fill:#ffffff;fill-opacity:1;fill-rule:evenodd;stroke:none" id="path21978" inkscape:connector-curvature="0"/></g><g id="g21980" transform="matrix(80,0,0,80,832.5276,353.0364)"><path d="m 0,0 c -0.018,-0.026 -0.035,-0.026 -0.052,-0.026 -0.018,0 -0.035,-0.009 -0.035,-0.026 0.008,-0.018 0.017,-0.027 0.035,-0.027 0.043,0 0.07,0.061 0.078,0.088 l 0.035,0 c 0,0 -0.043,-0.131 -0.157,-0.131 -0.114,0 -0.166,0.131 -0.166,0.131 0,0 0.096,-0.009 0.157,-0.009 L 0,0 z" style="fill:#ffffff;fill-opacity:1;fill-rule:evenodd;stroke:none" id="path21982" inkscape:connector-curvature="0"/></g><g id="g21984" transform="matrix(80,0,0,80,868.1996,357.9324)"><path d="m 0,0 c -0.07,-0.026 -0.122,-0.035 -0.254,-0.052 0,0 0.009,-0.018 0.035,-0.018 0.009,0.009 0.009,0.009 0.018,0.009 0.009,0 0.017,-0.009 0.017,-0.018 0,-0.017 -0.008,-0.026 -0.043,-0.026 -0.027,0 -0.053,0.026 -0.07,0.044 l -0.035,0 c 0,0 0.052,-0.079 0.157,-0.079 0.114,0 0.158,0.105 0.175,0.14" style="fill:#f2f2f2;fill-opacity:1;fill-rule:evenodd;stroke:none" id="path21986" inkscape:connector-curvature="0"/></g><g id="g21988" transform="matrix(80,0,0,80,780.7596,357.9324)"><path d="m 0,0 c 0.079,-0.026 0.131,-0.035 0.262,-0.052 0,0 -0.008,-0.018 -0.035,-0.018 -0.008,0.009 -0.008,0.009 -0.017,0.009 -0.009,0 -0.018,-0.009 -0.018,-0.018 0,-0.017 0.009,-0.026 0.035,-0.026 0.035,0 0.062,0.026 0.079,0.044 l 0.035,0 c 0,0 -0.052,-0.079 -0.157,-0.079 C 0.061,-0.14 0.026,-0.035 0,0" style="fill:#ffffff;fill-opacity:1;fill-rule:evenodd;stroke:none" id="path21990" inkscape:connector-curvature="0"/></g><g id="g21992" transform="matrix(80,0,0,80,824.1276,407.6044)"><path d="M 0,0 C 0.393,0 0.839,0.245 1.154,0.595 1.189,0.638 1.242,0.708 1.382,0.708 1.513,0.708 1.696,0.586 1.679,0.359 1.661,0.192 1.425,-0.175 1.023,-0.402 0.621,-0.63 0.254,-0.682 0,-0.682 c -0.262,0 -0.63,0.052 -1.032,0.28 -0.402,0.227 -0.638,0.594 -0.647,0.761 -0.026,0.227 0.157,0.349 0.289,0.349 0.139,0 0.192,-0.07 0.227,-0.113 C -0.848,0.245 -0.402,0 0,0" style="fill:#ffffff;fill-opacity:1;fill-rule:evenodd;stroke:none" id="path21994" inkscape:connector-curvature="0"/></g><g id="g21996" transform="matrix(80,0,0,80,824.1276,407.6044)"><path d="M 0,0 C 0.393,0 0.839,0.245 1.154,0.595 1.189,0.638 1.242,0.708 1.382,0.708 1.513,0.708 1.696,0.586 1.679,0.359 1.661,0.192 1.425,-0.175 1.023,-0.402 0.621,-0.63 0.254,-0.682 0,-0.682 c -0.262,0 -0.63,0.052 -1.032,0.28 -0.402,0.227 -0.638,0.594 -0.647,0.761 -0.026,0.227 0.157,0.349 0.289,0.349 0.139,0 0.192,-0.07 0.227,-0.113 C -0.848,0.245 -0.402,0 0,0 z" style="fill:none;stroke:#2b3332;stroke-width:0.041;stroke-linecap:butt;stroke-linejoin:miter;stroke-miterlimit:10;stroke-opacity:1;stroke-dasharray:none" id="path21998" inkscape:connector-curvature="0"/></g><g id="g22000" transform="matrix(80,0,0,80,727.5836,452.3804)"><path d="m 0,0 0,0.009 c -0.035,0.035 -0.079,0.087 -0.184,0.087 -0.061,0 -0.131,-0.035 -0.175,-0.087 -0.035,-0.035 -0.078,-0.105 -0.061,-0.201 0.009,-0.14 0.228,-0.499 0.621,-0.717 0.315,-0.184 0.647,-0.272 0.997,-0.272 0.35,0 0.691,0.088 1.006,0.272 0.385,0.218 0.603,0.577 0.621,0.717 C 2.833,-0.096 2.79,-0.026 2.763,0.009 2.711,0.061 2.641,0.096 2.58,0.096 2.475,0.096 2.431,0.044 2.405,0.009 L 2.396,0 C 2.064,-0.385 1.6,-0.621 1.198,-0.621 0.796,-0.621 0.332,-0.385 0,0" style="fill:#2e2e30;fill-opacity:1;fill-rule:evenodd;stroke:none" id="path22002" inkscape:connector-curvature="0"/></g><g id="g22004" transform="matrix(80,0,0,80,926.9676,488.7564)"><path d="M 0,0 C 0,0.192 0.157,0.35 0.35,0.35 0.542,0.35 0.7,0.192 0.7,0 0.7,-0.192 0.542,-0.35 0.35,-0.35 0.157,-0.35 0,-0.192 0,0" style="fill:#ffffff;fill-opacity:1;fill-rule:evenodd;stroke:none" id="path22006" inkscape:connector-curvature="0"/></g><g id="g22008" transform="matrix(80,0,0,80,926.9676,488.7564)"><path d="M 0,0 C 0,0.192 0.157,0.35 0.35,0.35 0.542,0.35 0.7,0.192 0.7,0 0.7,-0.192 0.542,-0.35 0.35,-0.35 0.157,-0.35 0,-0.192 0,0 z" style="fill:none;stroke:#231f20;stroke-width:0.041;stroke-linecap:butt;stroke-linejoin:miter;stroke-miterlimit:10;stroke-opacity:1;stroke-dasharray:none" id="path22010" inkscape:connector-curvature="0"/></g><g id="g22012" transform="matrix(80,0,0,80,665.3196,488.7564)"><path d="M 0,0 C 0,0.192 0.157,0.35 0.35,0.35 0.542,0.35 0.7,0.192 0.7,0 0.7,-0.192 0.542,-0.35 0.35,-0.35 0.157,-0.35 0,-0.192 0,0" style="fill:#ffffff;fill-opacity:1;fill-rule:evenodd;stroke:none" id="path22014" inkscape:connector-curvature="0"/></g><g id="g22016" transform="matrix(80,0,0,80,665.3196,488.7564)"><path d="M 0,0 C 0,0.192 0.157,0.35 0.35,0.35 0.542,0.35 0.7,0.192 0.7,0 0.7,-0.192 0.542,-0.35 0.35,-0.35 0.157,-0.35 0,-0.192 0,0 z" style="fill:none;stroke:#231f20;stroke-width:0.041;stroke-linecap:butt;stroke-linejoin:miter;stroke-miterlimit:10;stroke-opacity:1;stroke-dasharray:none" id="path22018" inkscape:connector-curvature="0"/></g><g id="g22020" transform="matrix(80,0,0,80,962.6476,563.6124)"><path d="M 0,0 0,0.096 C 0.026,0.07 0.079,0.07 0.114,0.105 0.131,0.122 0.14,0.14 0.131,0.166 0.131,0.192 0.122,0.227 0.096,0.245 -0.018,0.359 -0.122,0.472 -0.122,0.472 -0.131,0.49 -0.149,0.507 -0.157,0.507 -0.175,0.516 -0.227,0.533 -0.262,0.481 -0.297,0.429 -0.289,0.35 -0.289,0.324 L -0.175,0.175 C -0.14,0.122 -0.035,0.026 0,0" style="fill:#231f20;fill-opacity:1;fill-rule:evenodd;stroke:none" id="path22022" inkscape:connector-curvature="0"/></g><g id="g22024" transform="matrix(80,0,0,80,774.4556,641.2684)"><path d="M 0,0 C 0.14,0.044 0.271,0.087 0.437,0.096 L 0,0 z" style="fill:#231f20;fill-opacity:1;fill-rule:evenodd;stroke:none" id="path22026" inkscape:connector-curvature="0"/></g><g id="g22028" transform="matrix(80,0,0,80,774.4556,641.2684)"><path d="M 0,0 C 0.14,0.044 0.271,0.087 0.437,0.096 L 0.464,0.114 C 0.367,0.192 0.271,0.236 0.184,0.236 0.122,0.236 0,0.201 -0.026,-0.009 L 0,0 z" style="fill:#2e2e30;fill-opacity:1;fill-rule:evenodd;stroke:none" id="path22030" inkscape:connector-curvature="0"/></g><g id="g22032" transform="matrix(80,0,0,80,873.1036,641.2684)"><path d="m 0,0 c -0.14,0.044 -0.262,0.087 -0.437,0.096 l -0.027,0.018 c 0.097,0.078 0.193,0.122 0.289,0.122 0.053,0 0.175,-0.035 0.201,-0.245 L 0,0 z" style="fill:#2e2e30;fill-opacity:1;fill-rule:evenodd;stroke:none" id="path22034" inkscape:connector-curvature="0"/></g><g id="g22036" transform="matrix(80,0,0,80,815.0316,651.0604)"><path d="M 0,0 0.114,0 0.227,0 0,0 z" style="fill:#231f20;fill-opacity:1;fill-rule:evenodd;stroke:none" id="path22038" inkscape:connector-curvature="0"/></g><g id="g22040" transform="matrix(80,0,0,80,811.5356,649.6684)"><path d="m 0,0 c 0.07,0.131 0.131,0.184 0.166,0.184 0.044,0 0.096,-0.07 0.14,-0.158 L 0.315,0 0.28,0.009 l -0.123,0 -0.113,0 L 0,0 z" style="fill:#2e2e30;fill-opacity:1;fill-rule:evenodd;stroke:none" id="path22042" inkscape:connector-curvature="0"/></g><g id="g22044" transform="matrix(80,0,0,80,800.3436,397.1084)"><path d="m 0,0 -0.061,-0.236 -0.114,0.28 -0.079,0.026 -0.087,-0.332 0.079,-0.018 0.07,0.228 0.113,-0.28 0.07,-0.018 0.088,0.333 L 0,0 z" style="fill:#ffffff;fill-opacity:1;fill-rule:evenodd;stroke:none" id="path22046" inkscape:connector-curvature="0"/></g><g id="g22048" transform="matrix(80,0,0,80,822.0316,393.6124)"><path d="M 0,0 -0.087,0.009 -0.105,-0.332 -0.018,-0.341 0,0 z" style="fill:#ffffff;fill-opacity:1;fill-rule:evenodd;stroke:none" id="path22050" inkscape:connector-curvature="0"/></g><g id="g22052" transform="matrix(80,0,0,80,828.3276,394.3084)"><path d="m 0,0 0.009,-0.052 0.096,0.017 0.044,-0.289 0.087,0.009 -0.044,0.289 0.097,0.017 L 0.28,0.035 0,0 z" style="fill:#ffffff;fill-opacity:1;fill-rule:evenodd;stroke:none" id="path22054" inkscape:connector-curvature="0"/></g><g id="g22056" transform="matrix(80,0,0,80,902.4876,404.8044)"><path d="m 0,0 c 0.044,-0.07 0.035,-0.131 -0.035,-0.166 l -0.035,-0.018 -0.017,0.027 0,-0.088 0.078,0.044 c 0.123,0.07 0.131,0.166 0.088,0.253 -0.044,0.07 -0.097,0.088 -0.166,0.079 l 0,-0.061 C -0.044,0.07 -0.026,0.035 0,0 m -0.087,-0.157 -0.105,0.192 0.035,0.017 c 0.026,0.018 0.052,0.018 0.07,0.018 l 0,0.061 C -0.114,0.122 -0.149,0.114 -0.175,0.096 l -0.114,-0.07 0.167,-0.297 0.035,0.026 0,0.088 z" style="fill:#ffffff;fill-opacity:1;fill-rule:evenodd;stroke:none" id="path22058" inkscape:connector-curvature="0"/></g><g id="g22060" transform="matrix(80,0,0,80,870.9996,378.9164)"><path d="M 0,0 -0.035,0.105 0.07,0.131 0.052,0.175 -0.044,0.149 -0.079,0.236 0.026,0.271 0.018,0.315 -0.175,0.254 -0.07,-0.07 0.14,-0.009 0.122,0.035 0,0 z" style="fill:#ffffff;fill-opacity:1;fill-rule:evenodd;stroke:none" id="path22062" inkscape:connector-curvature="0"/></g><g id="g22064" transform="matrix(80,0,0,80,767.4636,409.0044)"><path d="m 0,0 -0.096,-0.184 c -0.035,-0.052 -0.07,-0.087 -0.114,-0.061 -0.052,0.026 -0.044,0.07 -0.009,0.123 l 0.097,0.183 -0.079,0.044 -0.105,-0.192 c -0.061,-0.105 0.009,-0.167 0.07,-0.202 0.061,-0.035 0.149,-0.061 0.21,0.044 L 0.079,-0.052 0,0 z" style="fill:#ffffff;fill-opacity:1;fill-rule:evenodd;stroke:none" id="path22066" inkscape:connector-curvature="0"/></g><g id="g22068" transform="matrix(80,0,0,80,762.5596,568.5084)"><path d="M 0,0 0,-1.592 0.77,-2.081 1.53,-1.592 1.53,0 C 1.504,0.018 1.452,0.07 1.417,0.096 l -1.303,0 C 0.079,0.07 0.018,0.018 0,0" style="fill:#ffffff;fill-opacity:1;fill-rule:evenodd;stroke:none" id="path22070" inkscape:connector-curvature="0"/></g><g id="g22072" transform="matrix(80,0,0,80,875.8956,576.2044)"><path d="m 0,0 -1.303,0 m 0,0 c -0.035,-0.026 -0.096,-0.079 -0.114,-0.096" style="fill:none;stroke:#231f20;stroke-width:0.041;stroke-linecap:butt;stroke-linejoin:miter;stroke-miterlimit:10;stroke-opacity:1;stroke-dasharray:none" id="path22074" inkscape:connector-curvature="0"/></g><g id="g22076" transform="matrix(80,0,0,80,843.7116,431.3884)"><path d="M 0,0 0,0.306 C 0.018,0.289 0.018,0.262 0.018,0.245 0.018,0.227 0.009,0.175 0.009,0.149 l 0,-0.07 C 0.009,0.061 0.018,0.044 0.018,0.017 0.018,0 0.009,-0.009 0,0 M 0,0.472 C 0.018,0.463 0.044,0.446 0.052,0.428 L 0.052,0 c 0,-0.026 0.07,-0.026 0.07,0 l 0,0.437 c 0,0 0.035,0.044 0.035,0.07 0,0.018 0.009,0.035 0,0.053 0,0 0.018,0.017 0.018,0.052 0,0.035 -0.026,0.088 -0.053,0.114 l 0,0.087 0.123,0 0,0.184 L 0.262,1.023 0.21,1.119 0.157,1.023 0.184,0.997 l 0,-0.096 -0.062,0 0,0.096 L 0.14,1.023 0.087,1.119 0.044,1.023 0.061,0.997 0.061,0.901 0,0.901 0,0.997 0.026,1.023 0,1.067 0,0.813 l 0.052,0 0,-0.061 c 0,0 -0.026,0 -0.052,-0.009 L 0,0.656 c 0.044,0 0.052,-0.026 0.052,-0.026 l 0,-0.062 C 0.035,0.568 0.018,0.577 0,0.586 L 0,0.472 z m -0.192,0.56 c -0.009,0 -0.018,0 -0.018,-0.009 l 0,0.14 0.018,0.035 0.043,-0.105 0.079,0 C -0.114,1.049 -0.131,0.988 -0.131,0.944 l 0,-0.043 c 0,-0.027 -0.018,-0.061 -0.018,-0.061 0,0 0.07,-0.044 0.079,-0.053 C -0.061,0.778 -0.061,0.778 -0.061,0.77 -0.07,0.752 -0.114,0.735 -0.114,0.735 -0.131,0.726 -0.131,0.717 -0.131,0.708 -0.122,0.7 -0.114,0.7 -0.096,0.7 c 0.017,0.008 0.052,0.026 0.079,0.043 L 0,0.743 0,0.656 c -0.044,0 -0.061,-0.009 -0.061,-0.018 0,-0.017 0.017,-0.043 0.061,-0.052 L 0,0.472 -0.087,0.507 c -0.044,-0.035 -0.07,-0.105 -0.07,-0.105 0.017,-0.008 0.043,0 0.061,0.009 0.009,0.009 0.026,0.017 0.035,0.009 0.017,-0.009 0.017,-0.009 0.017,-0.026 -0.008,-0.018 -0.017,-0.044 -0.017,-0.07 0,-0.018 0.026,-0.018 0.044,-0.018 L 0,0.306 0,0 C -0.009,0 -0.017,0 -0.017,0.009 -0.035,0.017 -0.14,0.131 -0.21,0.21 l 0,0.761 c 0.009,0 0.009,0.008 0.018,0.026 l 0,0.035 z M 0,1.067 -0.026,1.119 -0.079,1.023 l 0.018,-0.026 0,-0.184 0.061,0 0,0.254 z m -0.21,-1.277 0,0.096 c 0,-0.008 0.009,-0.017 0.009,-0.017 0.026,-0.035 0.017,-0.061 -0.009,-0.079 m 0,0.245 c 0,0.009 0,0.009 0.009,0.009 0.017,0.017 0.017,0.043 0,0.07 -0.009,0 -0.009,0.008 -0.009,0.008 l 0,-0.087 z m 0,0.988 c -0.009,0 -0.017,-0.009 -0.017,-0.017 -0.009,-0.009 -0.009,-0.027 0,-0.035 l 0.017,0 0,-0.761 -0.052,0.061 0,0.507 c 0.026,0.044 0.035,0.088 0.035,0.088 l -0.035,0 0,0.227 0.008,0 0.044,0.07 0,-0.14 z m 0,-0.901 0,-0.087 C -0.227,0.026 -0.254,0.017 -0.262,0 l 0,0.201 C -0.254,0.175 -0.227,0.14 -0.21,0.122 m 0,-0.236 0,-0.096 c -0.017,-0.017 -0.035,-0.026 -0.052,-0.026 l 0,0.21 c 0,-0.018 0.017,-0.053 0.052,-0.088 m -0.052,1.207 0,-0.227 -0.035,0 c 0,0 0.008,-0.044 0.035,-0.088 l 0,-0.507 -0.018,0.009 c 0,-0.018 0,-0.044 0.018,-0.079 l 0,-0.201 c -0.009,-0.009 -0.009,-0.017 0,-0.026 l 0,-0.21 C -0.28,-0.245 -0.306,-0.254 -0.324,-0.254 l 0,1.225 0.018,0 c 0.009,0.008 0.009,0.026 0,0.035 -0.009,0.008 -0.009,0.017 -0.018,0.017 l 0,0.096 0.018,-0.026 0.044,0 z m -0.062,0.026 0,-0.096 c -0.008,0.009 -0.017,0.009 -0.017,0.009 -0.009,0 0,-0.026 0,-0.035 0,-0.018 0.009,-0.026 0.017,-0.026 l 0,-1.225 c -0.061,-0.017 -0.061,0.027 -0.061,0.053 0.009,0.026 0.009,0.044 0.009,0.061 0,0.026 -0.026,0.053 -0.052,0.088 -0.027,0.035 -0.027,0.069 -0.018,0.157 0.018,0.079 0.009,0.131 0.009,0.131 l -0.07,0 c -0.044,0.009 -0.079,0.026 -0.079,0.131 0,0.096 0,0.341 -0.009,0.368 -0.008,0.026 -0.035,0.026 -0.043,0.035 -0.018,0 -0.018,0.017 -0.009,0.026 0.035,0.009 0.07,0.044 0.061,0.07 -0.017,0.026 -0.07,0.017 -0.105,0 -0.035,-0.018 -0.079,-0.053 -0.087,-0.061 -0.009,-0.009 -0.018,-0.009 -0.009,0 0,0.008 -0.009,0.061 -0.018,0.087 0,0.017 -0.017,0.052 -0.026,0.061 -0.008,0.009 0,0.018 0.009,0.009 0.009,0 0.035,-0.009 0.052,-0.018 0.018,-0.008 0.035,0.009 0.053,0.027 0.009,0.017 0.026,0.061 0.035,0.078 0.009,0.018 0.026,0.009 0.035,0.009 0.017,0 0.026,-0.009 0.035,-0.017 0.017,0 0.026,0 0.026,0.008 0.009,0 0.009,0 0.018,0.018 0.008,0.017 0.017,0.009 0.017,0 0.035,-0.201 0.123,-0.21 0.123,-0.21 C -0.446,0.822 -0.472,0.761 -0.481,0.752 -0.49,0.735 -0.49,0.717 -0.498,0.708 c 0,-0.017 0.008,-0.157 0.017,-0.201 0.009,-0.052 0.044,-0.035 0.053,-0.017 0.008,0.017 0.035,0.078 0.035,0.078 0,0 0.008,0.018 0.008,0.027 0,0.017 -0.026,0.052 -0.026,0.061 -0.009,0.009 -0.026,0.026 -0.026,0.079 0,0.043 0.044,0.078 0.052,0.087 0.018,0.018 0.018,0.035 0.018,0.044 -0.009,0.035 -0.044,0.113 -0.07,0.148 -0.018,0.027 -0.053,0.088 -0.053,0.088 l 0.079,0 0.044,0.096 0.043,-0.079 z" style="fill:#393536;fill-opacity:1;fill-rule:evenodd;stroke:none" id="path22078" inkscape:connector-curvature="0"/></g><path d="m 767.4556,537.0284 112.64,0 0,-7.68 -112.64,0 0,7.68 z" style="fill:#393536;fill-opacity:1;fill-rule:evenodd;stroke:none" id="path22080" inkscape:connector-curvature="0"/><path d="m 767.4556,571.3484 112.64,0 0,-30.8 -112.64,0 0,30.8 z" style="fill:#393536;fill-opacity:1;fill-rule:evenodd;stroke:none" id="path22082" inkscape:connector-curvature="0"/><g id="g22084" transform="matrix(80,0,0,80,857.7116,539.8284)"><path d="m 0,0 0,0.07 -0.096,0 0,0.035 0.078,0 0,0.184 -0.078,0 -0.018,0.052 -0.026,-0.052 -0.079,0 0,-0.184 0.079,0 0,-0.035 -0.201,0 0,0.035 0.087,0 0,0.184 -0.078,0 -0.027,0.052 -0.026,-0.052 -0.07,0 0,-0.184 0.079,0 0,-0.035 -0.201,0 0,0.035 0.079,0 0,0.184 -0.07,0 -0.027,0.052 -0.026,-0.052 -0.079,0 0,-0.184 0.079,0 0,-0.035 L -0.778,0.061 -0.936,0.105 -0.909,0 0,0 z" style="fill:#ffffff;fill-opacity:1;fill-rule:evenodd;stroke:none" id="path22086" inkscape:connector-curvature="0"/></g><g id="g22088" transform="matrix(80,0,0,80,787.0476,548.9244)"><path d="m 0,0 0.105,-0.026 0.061,0.157 0,0.044 L 0,0 z" style="fill:#ffffff;fill-opacity:1;fill-rule:evenodd;stroke:none" id="path22090" inkscape:connector-curvature="0"/></g><g id="g22092" transform="matrix(80,0,0,80,808.0396,650.3644)"><path d="m 0,0 c -0.166,-0.017 -0.271,-0.052 -0.411,-0.096 0.009,0.052 0.026,0.087 0.052,0.122 -0.008,-0.026 0.018,-0.061 0.07,-0.061 0.053,0 0.079,0.026 0.079,0.044 0,0.017 -0.017,0.043 -0.044,0.043 -0.026,0 -0.026,-0.017 -0.026,-0.026 0,-0.009 0,-0.009 -0.009,-0.009 -0.008,-0.008 -0.035,0.009 -0.026,0.035 0.009,0.027 0.044,0.044 0.088,0.044 0,0 0.096,0 0.227,-0.096" style="fill:#ffffff;fill-opacity:1;fill-rule:evenodd;stroke:none" id="path22094" inkscape:connector-curvature="0"/></g><g id="g22096" transform="matrix(80,0,0,80,872.3996,641.9644)"><path d="m 0,0 c -0.131,0.052 -0.245,0.087 -0.411,0.096 0.079,0.061 0.149,0.105 0.227,0.105 0.044,0 0.079,-0.017 0.088,-0.044 0.009,-0.026 -0.018,-0.043 -0.018,-0.035 -0.008,0 -0.017,0 -0.017,0.009 0,0.009 0,0.026 -0.026,0.026 -0.027,0 -0.035,-0.026 -0.035,-0.043 0,-0.018 0.026,-0.044 0.07,-0.044 0.052,0 0.078,0.035 0.07,0.061 C -0.026,0.096 -0.009,0.061 0,0" style="fill:#ffffff;fill-opacity:1;fill-rule:evenodd;stroke:none" id="path22098" inkscape:connector-curvature="0"/></g><g id="g22100" transform="matrix(80,0,0,80,815.7356,652.4604)"><path d="m 0,0 c 0,-0.009 -0.009,-0.009 -0.009,-0.017 l 0.114,0 0.114,0 C 0.192,0.035 0.149,0.114 0.114,0.114 0.105,0.114 0.096,0.122 0.07,0.087 c 0,0 -0.009,-0.008 0.009,-0.008 0.017,0 0.026,-0.018 0.026,-0.035 C 0.105,0.017 0.07,0 0.044,0 L 0,0 z" style="fill:#ffffff;fill-opacity:1;fill-rule:evenodd;stroke:none" id="path22102" inkscape:connector-curvature="0"/></g><g id="g22104" transform="matrix(80,0,0,80,699.5996,577.6044)"><path d="M 0,0 0.114,0.149 C 0.122,0.175 0.122,0.254 0.087,0.306 0.052,0.359 0,0.341 -0.017,0.332 c -0.009,0 -0.027,-0.017 -0.035,-0.035 0,0 -0.105,-0.113 -0.228,-0.227 -0.009,-0.018 -0.026,-0.053 -0.035,-0.079 0,-0.026 0.009,-0.043 0.026,-0.061 0.035,-0.035 0.088,-0.035 0.114,-0.009 l 0,-0.096 C -0.14,-0.149 -0.035,-0.052 0,0" style="fill:#231f20;fill-opacity:1;fill-rule:evenodd;stroke:none" id="path22106" inkscape:connector-curvature="0"/></g><g id="g22108" transform="matrix(80,0,0,80,824.1276,595.1004)"><path d="m 0,0 c 0.621,0 0.979,-0.595 1.058,-0.7 0.14,-0.183 0.306,-0.332 0.507,-0.279 0.289,0.07 0.271,0.498 0.271,0.498 -0.07,0.052 -0.192,0.114 -0.402,0.42 C 1.216,0.236 0.743,0.682 0,0.682 c -0.752,0 -1.224,-0.446 -1.443,-0.743 -0.21,-0.306 -0.332,-0.368 -0.402,-0.42 0,0 -0.018,-0.428 0.271,-0.498 0.201,-0.053 0.367,0.096 0.507,0.279 C -0.988,-0.595 -0.63,0 0,0" style="fill:#ffffff;fill-opacity:1;fill-rule:evenodd;stroke:none" id="path22110" inkscape:connector-curvature="0"/></g><g id="g22112" transform="matrix(80,0,0,80,824.1276,595.1004)"><path d="m 0,0 c 0.621,0 0.979,-0.595 1.058,-0.7 0.14,-0.183 0.306,-0.332 0.507,-0.279 0.289,0.07 0.271,0.498 0.271,0.498 -0.07,0.052 -0.192,0.114 -0.402,0.42 C 1.216,0.236 0.743,0.682 0,0.682 c -0.752,0 -1.224,-0.446 -1.443,-0.743 -0.21,-0.306 -0.332,-0.368 -0.402,-0.42 0,0 -0.018,-0.428 0.271,-0.498 0.201,-0.053 0.367,0.096 0.507,0.279 C -0.988,-0.595 -0.63,0 0,0 z" style="fill:none;stroke:#2e2e30;stroke-width:0.041;stroke-linecap:butt;stroke-linejoin:miter;stroke-miterlimit:10;stroke-opacity:1;stroke-dasharray:none" id="path22114" inkscape:connector-curvature="0"/></g><g id="g22116" transform="matrix(80,0,0,80,824.1276,599.2924)"><path d="m 0,0 c 0.603,0 0.962,-0.516 1.076,-0.682 0.008,-0.009 0.017,-0.026 0.026,-0.035 0.157,-0.21 0.306,-0.297 0.446,-0.262 0.201,0.052 0.227,0.332 0.227,0.411 l 0,0.008 C 1.705,-0.507 1.583,-0.428 1.39,-0.149 1.268,0.026 0.813,0.577 0,0.577 c -0.822,0 -1.277,-0.551 -1.39,-0.726 -0.202,-0.279 -0.324,-0.367 -0.394,-0.411 0,-0.087 0.026,-0.367 0.227,-0.419 0.14,-0.035 0.289,0.052 0.446,0.262 0.009,0.009 0.018,0.026 0.027,0.035 C -0.971,-0.516 -0.612,0 0,0" style="fill:#2e2e30;fill-opacity:1;fill-rule:evenodd;stroke:none" id="path22118" inkscape:connector-curvature="0"/></g><g id="g22120" transform="matrix(80,0,0,80,719.8876,580.4044)"><path d="m 0,0 -0.061,-0.079 0.113,-0.245 -0.253,0.088 -0.053,-0.061 0.263,-0.219 0.035,0.044 -0.184,0.157 0.245,-0.087 0.026,0.035 -0.113,0.236 0.183,-0.158 0.061,0.07 L 0,0 z" style="fill:#ffffff;fill-opacity:1;fill-rule:evenodd;stroke:none" id="path22122" inkscape:connector-curvature="0"/></g><g id="g22124" transform="matrix(80,0,0,80,745.7756,584.6044)"><path d="m 0,0 -0.052,-0.061 0,-0.114 0.026,-0.061 0.035,0.044 -0.044,0.087 0.079,0.088 0.087,-0.044 0.07,0.07 -0.253,0.113 0,-0.096 L 0,0 z m -0.052,-0.061 -0.062,0.113 0.062,-0.026 0,0.096 -0.079,0.035 -0.061,-0.07 0.14,-0.262 0,0.114 z" style="fill:#ffffff;fill-opacity:1;fill-rule:evenodd;stroke:none" id="path22126" inkscape:connector-curvature="0"/></g><g id="g22128" transform="matrix(80,0,0,80,766.7596,621.6844)"><path d="m 0,0 0.131,-0.21 -0.288,0.114 -0.062,-0.044 0.184,-0.289 0.07,0.044 -0.131,0.201 0.288,-0.105 0.062,0.044 L 0.07,0.044 0,0 z" style="fill:#ffffff;fill-opacity:1;fill-rule:evenodd;stroke:none" id="path22130" inkscape:connector-curvature="0"/></g><g id="g22132" transform="matrix(80,0,0,80,852.8156,608.3884)"><path d="M 0,0 0.044,0.105 0.14,0.07 0.157,0.114 0.052,0.14 0.087,0.236 0.184,0.201 0.201,0.236 0.018,0.306 -0.096,-0.017 0.114,-0.087 0.122,-0.044 0,0 z" style="fill:#ffffff;fill-opacity:1;fill-rule:evenodd;stroke:none" id="path22134" inkscape:connector-curvature="0"/></g><g id="g22136" transform="matrix(80,0,0,80,899.6876,609.7884)"><path d="m 0,0 -0.035,-0.035 0.079,-0.061 -0.201,-0.219 0.07,-0.061 0.192,0.219 0.07,-0.062 L 0.21,-0.184 0,0 z" style="fill:#ffffff;fill-opacity:1;fill-rule:evenodd;stroke:none" id="path22138" inkscape:connector-curvature="0"/></g><g id="g22140" transform="matrix(80,0,0,80,907.3836,569.2124)"><path d="M 0,0 0.087,0.07 0.157,-0.017 0.192,0.017 0.122,0.096 0.192,0.157 0.262,0.07 0.297,0.105 0.166,0.254 -0.087,0.035 0.052,-0.131 0.087,-0.105 0,0 z" style="fill:#ffffff;fill-opacity:1;fill-rule:evenodd;stroke:none" id="path22142" inkscape:connector-curvature="0"/></g><g id="g22144" transform="matrix(80,0,0,80,938.8636,562.2124)"><path d="m 0,0 c 0.026,-0.026 0.026,-0.061 0,-0.087 -0.017,-0.009 -0.026,-0.009 -0.044,-0.009 l 0,-0.07 c 0.009,-0.009 0.062,-0.026 0.114,0.017 0.044,0.044 0.026,0.105 -0.018,0.166 L -0.044,0.114 -0.044,0 -0.017,0.017 0,0 z m -0.044,-0.096 c -0.017,0 -0.035,0.009 -0.043,0.017 l -0.018,0.018 0.061,0.061 0,0.114 -0.253,-0.228 0.061,-0.061 0.096,0.088 0.035,-0.035 -0.07,-0.14 0.079,-0.062 0.052,0.158 0,0.07 z" style="fill:#ffffff;fill-opacity:1;fill-rule:evenodd;stroke:none" id="path22146" inkscape:connector-curvature="0"/></g><g id="g22148" transform="matrix(80,0,0,80,833.2236,634.9724)"><path d="m 0,0 -0.009,-0.14 -0.131,0 0,0.14 -0.087,0.009 0,-0.341 0.087,-0.009 0,0.157 0.131,0 0,-0.157 0.088,0 L 0.087,0 0,0 z" style="fill:#ffffff;fill-opacity:1;fill-rule:evenodd;stroke:none" id="path22150" inkscape:connector-curvature="0"/></g><g id="g22152" transform="matrix(80,0,0,80,871.7036,594.3964)"><path d="M 0,0 C 0.061,-0.035 0.131,-0.026 0.166,0.026 0.192,0.061 0.192,0.096 0.157,0.149 0.157,0.166 0.149,0.175 0.14,0.192 0.122,0.21 0.114,0.236 0.122,0.254 0.14,0.271 0.166,0.271 0.192,0.254 0.219,0.245 0.227,0.219 0.227,0.192 L 0.271,0.219 C 0.262,0.245 0.245,0.28 0.201,0.306 0.122,0.35 0.07,0.332 0.044,0.297 0.017,0.254 0.026,0.219 0.044,0.184 c 0,0 0.008,-0.018 0.017,-0.035 C 0.079,0.122 0.096,0.087 0.087,0.07 0.07,0.035 0.044,0.035 0.009,0.052 -0.026,0.07 -0.035,0.096 -0.035,0.122 L -0.087,0.105 C -0.07,0.07 -0.052,0.035 0,0" style="fill:#ffffff;fill-opacity:1;fill-rule:evenodd;stroke:none" id="path22154" inkscape:connector-curvature="0"/></g><g id="g22156" transform="matrix(80,0,0,80,797.5436,633.5724)"><path d="m 0,0 c -0.114,-0.026 -0.184,-0.105 -0.157,-0.219 0.008,-0.061 0.061,-0.166 0.236,-0.131 0.043,0.009 0.07,0.026 0.096,0.053 L 0.14,-0.262 C 0.131,-0.28 0.114,-0.297 0.079,-0.306 c -0.088,-0.018 -0.131,0.052 -0.149,0.105 -0.017,0.087 0.035,0.149 0.088,0.157 0.043,0.009 0.061,0 0.078,-0.008 l 0.009,0.043 C 0.079,0 0.052,0.009 0,0" style="fill:#ffffff;fill-opacity:1;fill-rule:evenodd;stroke:none" id="path22158" inkscape:connector-curvature="0"/></g><g id="g22160" transform="matrix(80,0,0,80,941.6556,588.1004)"><path d="m 0,0 c 0,0.026 -0.009,0.114 0.026,0.157 0.026,0.044 0.053,0.027 0.07,0.018 0.009,0 0.026,-0.018 0.035,-0.044 C 0.131,0.122 0.122,0.105 0.114,0.087 0.096,0.061 0.044,0.044 0.044,0.044 c 0,0 0.061,-0.123 0.192,-0.236 l 0,-0.079 C 0.061,-0.105 0,0 0,0" style="fill:#ffffff;fill-opacity:1;fill-rule:evenodd;stroke:none" id="path22162" inkscape:connector-curvature="0"/></g><g id="g22164" transform="matrix(80,0,0,80,948.6556,590.1964)"><path d="m 0,0 c 0.018,-0.026 0.061,-0.105 0.175,-0.201 0.017,-0.018 0.061,-0.035 0.087,-0.009 0.009,0.018 0.018,0.026 0.018,0.044 0,0.026 -0.018,0.052 -0.026,0.061 C 0.227,-0.087 0.14,0.009 0.07,0.087 0.07,0.07 0.052,0.044 0.052,0.044 0.044,0.035 0.035,0.017 0,0" style="fill:#ffffff;fill-opacity:1;fill-rule:evenodd;stroke:none" id="path22166" inkscape:connector-curvature="0"/></g><g id="g22168" transform="matrix(80,0,0,80,948.6556,590.1964)"><path d="m 0,0 c 0.018,-0.026 0.061,-0.105 0.175,-0.201 0.017,-0.018 0.061,-0.035 0.087,-0.009 0.009,0.018 0.018,0.026 0.018,0.044 0,0.026 -0.018,0.052 -0.026,0.061 C 0.227,-0.087 0.14,0.009 0.07,0.087 0.07,0.07 0.052,0.044 0.052,0.044 0.044,0.035 0.035,0.017 0,0 z" style="fill:none;stroke:#2e2e30;stroke-width:0.003;stroke-linecap:butt;stroke-linejoin:miter;stroke-miterlimit:10;stroke-opacity:1;stroke-dasharray:none" id="path22170" inkscape:connector-curvature="0"/></g><g id="g22172" transform="matrix(80,0,0,80,687.7116,566.4124)"><path d="m 0,0 0,0.079 c 0.131,0.113 0.192,0.236 0.192,0.236 0,0 -0.052,0.017 -0.07,0.044 C 0.114,0.376 0.105,0.394 0.114,0.402 0.114,0.428 0.131,0.446 0.14,0.446 0.157,0.455 0.184,0.472 0.21,0.428 0.245,0.385 0.236,0.297 0.236,0.271 0.236,0.271 0.175,0.175 0,0" style="fill:#ffffff;fill-opacity:1;fill-rule:evenodd;stroke:none" id="path22174" inkscape:connector-curvature="0"/></g><g id="g22176" transform="matrix(80,0,0,80,699.5996,590.1964)"><path d="m 0,0 c -0.017,-0.026 -0.061,-0.105 -0.175,-0.201 -0.017,-0.018 -0.061,-0.035 -0.087,-0.009 -0.009,0.018 -0.018,0.026 -0.018,0.044 0,0.026 0.018,0.052 0.026,0.061 0.027,0.018 0.114,0.114 0.184,0.192 0,-0.017 0.018,-0.043 0.018,-0.043 C -0.044,0.035 -0.035,0.017 0,0" style="fill:#ffffff;fill-opacity:1;fill-rule:evenodd;stroke:none" id="path22178" inkscape:connector-curvature="0"/></g><g id="g22180" transform="matrix(80,0,0,80,670.9196,488.0524)"><path d="M 0,0 C 0,0.157 0.122,0.289 0.28,0.289 0.437,0.289 0.568,0.157 0.568,0 0.568,-0.149 0.437,-0.28 0.28,-0.28 0.122,-0.28 0,-0.149 0,0" style="fill:#4f4c4d;fill-opacity:1;fill-rule:evenodd;stroke:none" id="path22182" inkscape:connector-curvature="0"/></g><g id="g22184" transform="matrix(80,0,0,80,705.8956,504.8444)"><path d="M 0,0 C 0,-0.009 0.017,-0.017 0.017,-0.017 0.035,-0.035 0.061,-0.061 0.07,-0.096 0.087,-0.131 0.044,-0.192 0.026,-0.201 -0.026,-0.245 -0.061,-0.262 -0.079,-0.262 l 0,0.192 0,0.009 c 0.027,0 0.053,0.017 0.061,0.026 C 0,-0.017 0,0 0,0 m -0.079,-0.455 c 0.105,0.035 0.175,0.131 0.175,0.245 l 0,0.044 c 0,0.017 -0.009,0.017 -0.017,0.009 0,-0.009 -0.018,-0.053 -0.062,-0.079 -0.026,-0.026 -0.061,-0.044 -0.096,-0.053 l 0,-0.166 z m 0,0.411 c 0.027,0 0.053,0.018 0.053,0.044 0,0.009 0,0.017 -0.009,0.017 -0.017,0.009 -0.026,0.018 -0.044,0.027 l 0,-0.088 z m 0,-0.218 c -0.008,0 -0.017,-0.009 -0.026,-0.009 -0.009,0 -0.017,0 -0.026,0.009 l 0,0.078 c 0.009,0.044 0.026,0.088 0.035,0.105 0.009,0 0.009,0.009 0.017,0.009 l 0,-0.192 z m 0,0.306 0,-0.088 c -0.017,0 -0.026,-0.008 -0.035,-0.008 0,0 -0.008,0.008 -0.017,0.008 l 0,0.096 c 0.017,0 0.035,-0.008 0.052,-0.008 m 0,-0.333 0,-0.166 -0.008,0 c -0.009,0 -0.018,0.009 -0.027,0.018 -0.008,0.009 -0.017,0.026 -0.017,0.043 l 0,0.097 c 0.017,0 0.035,0.008 0.052,0.008 m -0.052,0.175 c 0,0.009 0,0.009 0.009,0.018 0,0.017 0,0.026 -0.009,0.026 l 0,-0.044 z m 0,-0.148 c -0.009,0.008 -0.009,0.017 -0.009,0.026 0,0.017 0,0.035 0.009,0.052 l 0,-0.078 z m 0,0.314 0,-0.096 c -0.035,0 -0.061,0.009 -0.088,0.018 -0.026,0.009 -0.035,0.026 -0.035,0.035 0,0.008 0,0.026 0.018,0.026 0.026,0.009 0.052,0.017 0.079,0.017 l 0.026,0 z m 0,-0.122 -0.018,0 c -0.008,0.009 -0.026,0.009 -0.035,0.018 -0.017,0 -0.026,0 -0.035,0.008 -0.017,0 -0.035,0 -0.043,-0.017 -0.009,-0.009 -0.027,-0.026 -0.035,-0.07 l 0,-0.28 c 0,-0.009 0.008,-0.017 0.008,-0.017 0.035,-0.018 0.088,-0.035 0.132,-0.035 l 0.008,0 c 0.009,0 0.009,0.008 0,0.035 -0.008,0.043 -0.017,0.104 -0.017,0.174 0,0.053 0.017,0.105 0.035,0.14 l 0,0.044 z m 0,-0.227 0,-0.097 c -0.009,0.035 -0.018,0.07 -0.018,0.079 0,0.009 0.009,0.018 0.018,0.018 m -0.166,0.218 0,0.088 c 0,0 0.008,0 0.008,0.008 0.009,0 0.009,0 0.009,-0.008 0,-0.009 0.009,-0.018 0.009,-0.026 0,0 0,-0.018 -0.009,-0.027 0,-0.008 -0.009,-0.017 -0.017,-0.035 m 0,0.088 0,-0.088 c -0.018,-0.026 -0.027,-0.052 -0.035,-0.07 0,-0.008 0,-0.017 -0.009,-0.008 -0.009,0 -0.018,0.008 -0.018,0.017 l 0,0.088 c 0.018,0.026 0.035,0.043 0.062,0.061 m 0,-0.14 c -0.018,-0.035 -0.035,-0.088 -0.035,-0.158 0,-0.035 0.008,-0.096 0.035,-0.122 l 0,0.28 z m -0.062,-0.228 0,0.193 c 0.009,-0.009 0.018,-0.026 0.018,-0.035 -0.018,-0.061 -0.009,-0.14 0,-0.158 0,-0.017 0,-0.017 -0.009,-0.017 -0.009,0.009 -0.009,0.009 -0.009,0.017 m 0,0.307 0,-0.088 c -0.008,0.009 -0.017,0.026 -0.017,0.035 -0.009,0 -0.009,0.026 0,0.035 0.009,0.009 0.009,0.009 0.017,0.018 m 0,-0.114 c -0.008,0 -0.017,0.009 -0.017,0.017 -0.009,0.009 -0.009,0.009 -0.018,0.018 0,0.009 -0.008,0 -0.008,0 -0.009,-0.026 -0.009,-0.053 -0.009,-0.079 0,-0.061 0.017,-0.114 0.052,-0.149 l 0,0.193 z" style="fill:#ffffff;fill-opacity:1;fill-rule:evenodd;stroke:none" id="path22186" inkscape:connector-curvature="0"/></g><g id="g22188" transform="matrix(80,0,0,80,978.0396,488.0524)"><path d="m 0,0 c 0,0.157 -0.131,0.289 -0.289,0.289 -0.157,0 -0.279,-0.132 -0.279,-0.289 0,-0.149 0.122,-0.28 0.279,-0.28 C -0.131,-0.28 0,-0.149 0,0" style="fill:#4f4c4d;fill-opacity:1;fill-rule:evenodd;stroke:none" id="path22190" inkscape:connector-curvature="0"/></g><g id="g22192" transform="matrix(80,0,0,80,971.7436,476.1644)"><path d="m 0,0 0,0.192 c 0,0 0.009,0.009 0.009,0.018 0.009,0.009 0.017,0.009 0.017,0.017 0.009,0.009 0.009,0 0.009,0 C 0.044,0.201 0.052,0.175 0.052,0.149 0.052,0.087 0.026,0.035 0,0 m 0,0.219 c 0.009,0.008 0.009,0.026 0.018,0.035 0,0 0,0.026 -0.009,0.035 C 0.009,0.289 0,0.297 0,0.306 L 0,0.219 z M 0,0.306 0,0.219 C -0.009,0.21 -0.017,0.201 -0.017,0.201 c -0.018,-0.009 -0.018,0 -0.018,0.009 -0.009,0.017 -0.017,0.044 -0.026,0.061 l 0,0.096 C -0.035,0.35 -0.017,0.332 0,0.306 M 0,0.192 0,0 c -0.009,-0.009 -0.009,-0.009 -0.009,-0.017 -0.008,0 -0.017,0 -0.008,0.017 0,0.017 0.008,0.096 0,0.157 0,0.009 0.008,0.027 0.017,0.035 m -0.061,-0.244 c 0.017,0.026 0.026,0.087 0.026,0.122 0,0.07 -0.009,0.122 -0.026,0.157 l 0,-0.279 z m -0.166,0.227 c 0,-0.018 0.008,-0.035 0.008,-0.053 0,-0.008 -0.008,-0.017 -0.008,-0.026 l 0,0.079 z m 0.166,0.192 0,-0.096 c -0.009,0.026 -0.018,0.035 -0.026,0.044 -0.009,0.009 0,0.026 0,0.026 l 0,0.026 c 0,0.009 0.008,0.009 0.008,0.009 0.009,-0.009 0.009,-0.009 0.018,-0.009 m 0,-0.14 C -0.079,0.271 -0.096,0.289 -0.096,0.297 -0.105,0.315 -0.122,0.315 -0.14,0.315 -0.157,0.306 -0.157,0.306 -0.175,0.306 -0.184,0.297 -0.201,0.297 -0.219,0.289 l -0.008,0 0,-0.044 c 0.008,-0.035 0.026,-0.088 0.026,-0.14 0.009,-0.07 0,-0.131 -0.018,-0.175 -0.008,-0.026 -0.008,-0.035 0.009,-0.035 0.053,0 0.105,0.018 0.131,0.035 0.009,0 0.009,0.009 0.018,0.018 l 0,0.279 z m -0.166,-0.262 0,0.096 c 0.008,0 0.008,-0.009 0.008,-0.017 0,-0.009 0,-0.044 -0.008,-0.079 m 0,0.35 0,0.096 0.017,0 c 0.035,0 0.061,-0.009 0.088,-0.017 0.008,0 0.017,-0.018 0.017,-0.027 0,-0.008 -0.009,-0.026 -0.044,-0.035 C -0.166,0.324 -0.201,0.315 -0.227,0.315 M -0.28,0.289 -0.271,0.28 c 0.009,-0.018 0.026,-0.061 0.044,-0.105 l 0,-0.079 C -0.236,0.087 -0.245,0.087 -0.262,0.087 c 0,0 -0.009,0.009 -0.018,0.009 l 0,0.193 z m 0.053,0.122 0,-0.096 c -0.009,0 -0.018,-0.009 -0.027,-0.009 -0.008,0 -0.017,0.009 -0.026,0.009 l 0,0.087 c 0.018,0 0.035,0.009 0.053,0.009 m 0,-0.122 c -0.009,0 -0.018,-0.009 -0.009,-0.027 0,-0.008 0,-0.017 0.009,-0.017 l 0,0.044 z m 0,-0.228 0,-0.096 C -0.236,-0.052 -0.245,-0.07 -0.254,-0.079 -0.262,-0.087 -0.262,-0.096 -0.28,-0.096 l 0,0.166 c 0.018,0 0.035,-0.009 0.053,-0.009 M -0.35,0.324 c 0.018,-0.009 0.035,-0.027 0.061,-0.027 0,0 0,-0.008 0.009,-0.008 l 0,-0.193 c -0.026,0 -0.061,0.009 -0.113,0.061 -0.009,0.009 -0.062,0.07 -0.044,0.105 0.009,0.035 0.035,0.062 0.061,0.079 0,0 0.009,0.009 0.017,0.018 0,0 0,-0.018 0.009,-0.035 m 0.07,0.078 C -0.297,0.394 -0.315,0.385 -0.332,0.376 c -0.009,0 -0.009,-0.009 -0.009,-0.017 0,-0.027 0.026,-0.044 0.061,-0.044 l 0,0.087 z m 0,-0.332 c -0.044,0.009 -0.07,0.026 -0.105,0.052 -0.035,0.027 -0.052,0.07 -0.061,0.079 0,0.009 -0.009,0.009 -0.009,-0.009 -0.008,-0.008 -0.008,-0.026 -0.008,-0.043 0,-0.114 0.078,-0.21 0.183,-0.245 l 0,0.166 z" style="fill:#ffffff;fill-opacity:1;fill-rule:evenodd;stroke:none" id="path22194" inkscape:connector-curvature="0"/></g><g id="g22196" transform="matrix(80,0,0,80,932.5676,488.7564)"><path d="M 0,0 0,0" style="fill:none;stroke:#fee702;stroke-width:0.004;stroke-linecap:butt;stroke-linejoin:miter;stroke-miterlimit:10;stroke-opacity:1;stroke-dasharray:none" id="path22198" inkscape:connector-curvature="0"/></g><g id="g22200" transform="matrix(80,0,0,80,762.5596,568.5084)"><path d="M 0,0 0,-1.592 0.77,-2.081 1.53,-1.592 1.53,0" style="fill:none;stroke:#2e2e30;stroke-width:0.041;stroke-linecap:butt;stroke-linejoin:miter;stroke-miterlimit:10;stroke-opacity:1;stroke-dasharray:none" id="path22202" inkscape:connector-curvature="0"/></g></g></svg>